<svg width="22" height="22" fill="none" xmlns="http://www.w3.org/2000/svg"><path d="M7.721 22c-.382 0-.76-.092-1.105-.272a2.59 2.59 0 01-.887-.764L.142 13.402a.977.977 0 01-.132-.65.935.935 0 01.31-.575.805.805 0 01.588-.197c.212.017.41.118.556.285l5.588 7.553c.082.117.189.21.311.272a.794.794 0 00.778-.03.878.878 0 00.293-.297L20.447.404a.886.886 0 01.236-.252.787.787 0 01.943.005.887.887 0 01.233.254.988.988 0 01-.004 1.02L9.849 20.781c-.223.361-.522.66-.873.872-.35.212-.743.33-1.144.347h-.11z" fill="#fff"/></svg>