<svg width="29" height="33" fill="none" xmlns="http://www.w3.org/2000/svg"><path d="M14.206 8.039c-4.486 0-8.125 3.482-8.125 7.777 0 5.101 3.545 6.401 3.545 9.37 0 .733.562 1.416 1.405 1.917-.177.147-.275.307-.275.476 0 .226.178.437.483.618-.286.178-.453.382-.453.6 0 .221.17.428.463.607-.3.18-.473.39-.473.612 0 .272.257.522.687.725-.167.15-.262.318-.262.493 0 .52.81.961 1.949 1.138.2.371.606.628 1.08.628a1.22 1.22 0 001.078-.624c1.15-.174 1.97-.619 1.97-1.14 0-.173-.092-.338-.255-.487.439-.204.7-.457.7-.732 0-.22-.169-.427-.462-.606.298-.18.473-.389.473-.611 0-.226-.178-.438-.483-.62.288-.176.454-.381.454-.6 0-.175-.106-.34-.296-.49.83-.5 1.381-1.176 1.381-1.903 0-2.97 3.54-4.27 3.54-9.37 0-4.296-3.637-7.778-8.124-7.778zm4.242 12.59c-.81 1.188-1.725 2.53-1.781 4.376-.278.31-1.271.813-2.459.813-1.188 0-2.181-.504-2.459-.815-.056-1.845-.973-3.188-1.784-4.375-.904-1.324-1.758-2.575-1.758-4.813 0-3.116 2.691-5.652 5.999-5.652s5.999 2.536 5.999 5.652c0 2.239-.854 3.49-1.757 4.814zM14.206 5.31c.584 0 1.063-.631 1.063-1.403V1.404C15.269.632 14.79 0 14.206 0c-.585 0-1.063.632-1.063 1.404v2.503c0 .773.478 1.404 1.063 1.404zM8.758 6.77c.507-.292.604-1.079.218-1.747L7.725 2.856c-.387-.67-1.117-.978-1.624-.686-.507.292-.604 1.079-.218 1.747l1.252 2.168c.387.669 1.117.977 1.623.685zM4.085 9.133L1.917 7.88C1.247 7.495.46 7.593.168 8.1c-.292.506.016 1.236.686 1.622l2.168 1.251c.67.386 1.457.289 1.748-.217.292-.507-.016-1.236-.685-1.622zm21.305 1.839l2.168-1.251c.67-.386.978-1.116.686-1.622-.292-.506-1.08-.604-1.749-.218l-2.167 1.252c-.67.386-.978 1.115-.686 1.622.291.506 1.078.603 1.748.217zM22.311 2.17c-.507-.293-1.238.016-1.624.685l-1.252 2.167c-.386.67-.288 1.455.218 1.747.507.292 1.237-.016 1.624-.685l1.253-2.168c.385-.668.287-1.454-.219-1.746z" fill="#fff"/></svg>