<svg width="54" height="64" fill="none" xmlns="http://www.w3.org/2000/svg"><path d="M27 15.351c-8.562 0-15.505 6.65-15.505 14.853 0 9.74 6.765 12.224 6.765 17.892 0 1.401 1.071 2.704 2.68 3.662-.336.28-.524.587-.524.909 0 .431.34.835.922 1.181-.547.34-.864.73-.864 1.146 0 .421.324.816.883 1.157-.571.344-.904.745-.904 1.17 0 .52.491.996 1.312 1.384-.318.288-.5.607-.5.942 0 .992 1.546 1.836 3.72 2.174a2.33 2.33 0 002.06 1.198c.902 0 1.676-.486 2.058-1.192 2.195-.332 3.759-1.181 3.759-2.176 0-.331-.176-.646-.487-.93.838-.39 1.338-.873 1.338-1.398 0-.42-.323-.816-.884-1.157.57-.344.904-.742.904-1.168 0-.431-.34-.835-.922-1.182.55-.338.866-.73.866-1.147 0-.333-.203-.649-.565-.935 1.584-.956 2.636-2.246 2.636-3.636 0-5.67 6.757-8.152 6.757-17.892-.002-8.206-6.943-14.855-15.506-14.855zm8.095 24.044c-1.544 2.269-3.291 4.832-3.399 8.356-.53.592-2.425 1.553-4.691 1.553-2.267 0-4.163-.962-4.693-1.556-.107-3.524-1.857-6.088-3.405-8.356-1.725-2.528-3.354-4.916-3.354-9.19 0-5.952 5.135-10.795 11.447-10.795 6.312 0 11.447 4.843 11.447 10.795 0 4.275-1.629 6.664-3.352 9.193zM27 10.142c1.115 0 2.028-1.207 2.028-2.682V2.682C29.028 1.207 28.115 0 27 0c-1.116 0-2.03 1.207-2.03 2.682V7.46c0 1.477.914 2.682 2.03 2.682zm-10.396 2.786c.967-.557 1.152-2.06.416-3.336l-2.388-4.139c-.738-1.278-2.132-1.866-3.1-1.308-.966.557-1.152 2.059-.416 3.336l2.39 4.139c.738 1.278 2.131 1.866 3.098 1.308zM7.685 17.44l-4.137-2.39c-1.278-.737-2.78-.55-3.337.417-.558.966.03 2.36 1.309 3.097l4.137 2.39c1.278.737 2.78.55 3.336-.416.557-.967-.03-2.36-1.308-3.098zm40.658 3.513l4.138-2.39c1.277-.737 1.866-2.13 1.308-3.096-.558-.967-2.06-1.154-3.337-.416l-4.136 2.39c-1.277.737-1.867 2.13-1.31 3.097.557.966 2.059 1.153 3.337.415zm-5.876-16.81c-.968-.558-2.362.031-3.1 1.309L36.98 9.59c-.737 1.278-.55 2.778.416 3.336.968.558 2.361-.03 3.099-1.309l2.39-4.139c.736-1.276.549-2.778-.417-3.336z" fill="#fff"/></svg>